<svg xmlns="http://www.w3.org/2000/svg" width="144" height="144" viewBox="0 0 144 144"><defs><filter id="s" x="-10%" y="-10%" width="120%" height="125%"><feDropShadow dx="0" dy="3" stdDeviation="2.5" flood-opacity=".35"/></filter><radialGradient id="g" cx=".38" cy=".32" r=".75"><stop offset="0" stop-color="#7fc2ff"/><stop offset=".6" stop-color="#1f6fd1"/><stop offset="1" stop-color="#0b2f73"/></radialGradient><clipPath id="c"><circle cx="72" cy="74" r="56"/></clipPath></defs><circle cx="72" cy="74" r="56" fill="url(#g)" filter="url(#s)"/><g clip-path="url(#c)" fill="#5aa64a" opacity=".95"><path d="M30 40c14-8 30-6 36 4s-6 16-2 26-14 20-26 14-18-30-8-44z"/><path d="M80 64c10-4 26 2 30 14s-6 26-18 30-16-8-12-20-10-20 0-24z"/><path d="M72 22c8-2 18 2 20 8s-10 6-16 4-12-10-4-12z"/></g><circle cx="72" cy="74" r="56" fill="none" stroke="#fff" stroke-opacity=".35" stroke-width="2"/><ellipse cx="54" cy="46" rx="22" ry="12" fill="#fff" opacity=".25"/></svg>
