<svg xmlns="http://www.w3.org/2000/svg" viewBox="0 0 7 24" width="9.33333" height="32"><path d="M6.5,9.9c-0.2,0.4 -0.6,0.7 -1,0.9s-1,0.4 -1.8,0.4c-0.9,0 -1.7,-0.3 -2.2,-0.8S0.7,9 0.7,7.9L0.7,5.6c0,-1.1 0.3,-1.9 0.8,-2.4s1.2,-0.8 2.1,-0.8c1,0 1.7,0.2 2.1,0.7s0.7,1.2 0.7,2.1L4.7,5.2c0,-0.5 -0.1,-0.9 -0.2,-1.1S4,3.7 3.6,3.7c-0.4,0 -0.7,0.2 -0.9,0.5S2.3,5 2.3,5.6l0,2.3c0,0.7 0.1,1.1 0.3,1.4s0.6,0.5 1,0.5c0.3,0 0.6,0 0.7,-0.1s0.3,-0.2 0.4,-0.3L4.7,7.8L3.5,7.8L3.5,6.6l2.9,0L6.4,9.9z" fill="#ffffff"/></svg>