<svg xmlns="http://www.w3.org/2000/svg" viewBox="0 0 336.00 675.33" width="336.00" height="675.33">
<defs>
<linearGradient id="body" x1="0" y1="0" x2="1" y2="1"><stop offset="0" stop-color="#121314"/><stop offset=".45" stop-color="#020203"/><stop offset="1" stop-color="#09090a"/></linearGradient>
<linearGradient id="rim" x1="0" y1="0" x2="1" y2="1"><stop offset="0" stop-color="#3c4043"/><stop offset=".5" stop-color="#0a0b0c"/><stop offset="1" stop-color="#34383b"/></linearGradient>
<linearGradient id="glare" x1="0" y1="0" x2="1" y2=".55"><stop offset="0" stop-color="#fff" stop-opacity=".12"/><stop offset=".38" stop-color="#fff" stop-opacity=".045"/><stop offset=".385" stop-color="#fff" stop-opacity="0"/></linearGradient>
<linearGradient id="chin" x1="0" y1="0" x2="0" y2="1"><stop offset=".86" stop-color="#fff" stop-opacity="0"/><stop offset=".975" stop-color="#fff" stop-opacity="0.1"/><stop offset="1" stop-color="#fff" stop-opacity="0"/></linearGradient>
<linearGradient id="grille" x1="0" y1="0" x2="0" y2="1"><stop offset="0" stop-color="#020303"/><stop offset=".55" stop-color="#15181a"/><stop offset="1" stop-color="#050606"/></linearGradient>
<radialGradient id="lens" cx=".42" cy=".38" r=".6"><stop offset="0" stop-color="#25384a"/><stop offset=".45" stop-color="#0b1219"/><stop offset="1" stop-color="#040608"/></radialGradient>
<linearGradient id="key" x1="0" y1="0" x2="1" y2="0"><stop offset="0" stop-color="#121416"/><stop offset=".55" stop-color="#55595c"/><stop offset="1" stop-color="#1b1e20"/></linearGradient>
<linearGradient id="glassEdge" x1="0" y1="0" x2=".6" y2="1"><stop offset="0" stop-color="#fff" stop-opacity=".34"/><stop offset=".45" stop-color="#fff" stop-opacity=".1"/><stop offset="1" stop-color="#fff" stop-opacity=".22"/></linearGradient>
<clipPath id="clip"><path d="M1.67 331.33C1.67 329.67 1.67 327.33 1.67 325.33C1.67 323.33 1.67 321.33 1.67 319.33C1.67 317.33 1.72 315.33 1.67 313.33C1.61 311.33 1.39 309.33 1.33 307.33C1.28 305.33 1.33 303.33 1.33 301.33C1.33 299.33 1.33 297.33 1.33 295.33C1.33 293.33 1.56 291.33 1.33 289.33C1.11 287.33 0.22 285.33 0.00 283.33C-0.22 281.33 0.00 279.33 0.00 277.33C0.00 275.33 0.00 273.33 0.00 271.33C0.00 269.33 0.00 267.33 0.00 265.33C0.00 263.33 0.00 261.33 0.00 259.33C0.00 257.33 0.00 255.33 0.00 253.33C0.00 251.33 0.00 249.33 0.00 247.33C0.00 245.33 0.00 243.33 0.00 241.33C0.00 239.33 0.00 237.33 0.00 235.33C0.00 233.33 0.00 231.33 0.00 229.33C0.00 227.33 0.00 225.67 0.00 223.33C0.00 221.00 0.00 217.67 0.00 215.33C0.00 213.00 0.00 211.33 0.00 209.33C0.00 207.33 0.00 205.67 0.00 203.33C0.00 201.00 0.00 198.00 0.00 195.33C0.00 192.67 0.00 189.67 0.00 187.33C0.00 185.00 -0.06 183.67 0.00 181.33C0.06 179.00 0.28 176.33 0.33 173.33C0.39 170.33 0.33 166.33 0.33 163.33C0.33 160.33 0.33 158.33 0.33 155.33C0.33 152.33 0.39 148.67 0.33 145.33C0.28 142.00 0.06 139.00 0.00 135.33C-0.06 131.67 0.00 127.33 0.00 123.33C0.00 119.33 0.00 115.33 0.00 111.33C0.00 107.33 0.00 103.67 0.00 99.33C0.00 95.00 -0.06 90.00 0.00 85.33C0.06 80.67 -0.11 75.67 0.33 71.33C0.78 67.00 1.78 63.00 2.67 59.33C3.56 55.67 4.33 52.89 5.67 49.33C7.00 45.78 8.94 41.11 10.67 38.00C12.39 34.89 13.94 33.11 16.00 30.67C18.06 28.22 20.78 25.39 23.00 23.33C25.22 21.28 26.83 20.00 29.33 18.33C31.83 16.67 35.33 14.67 38.00 13.33C40.67 12.00 42.78 11.22 45.33 10.33C47.89 9.44 50.67 8.67 53.33 8.00C56.00 7.33 58.44 6.83 61.33 6.33C64.22 5.83 67.33 5.44 70.67 5.00C74.00 4.56 78.44 4.00 81.33 3.67C84.22 3.33 85.11 3.28 88.00 3.00C90.89 2.72 95.50 2.28 98.67 2.00C101.83 1.72 104.33 1.44 107.00 1.33C109.67 1.22 111.83 1.44 114.67 1.33C117.50 1.22 121.11 0.78 124.00 0.67C126.89 0.56 129.11 0.72 132.00 0.67C134.89 0.61 138.44 0.39 141.33 0.33C144.22 0.28 146.44 0.39 149.33 0.33C152.22 0.28 155.56 0.06 158.67 0.00C161.78 -0.06 164.89 0.00 168.00 0.00C171.11 0.00 174.44 -0.06 177.33 0.00C180.22 0.06 182.44 0.22 185.33 0.33C188.22 0.44 192.00 0.61 194.67 0.67C197.33 0.72 198.67 0.61 201.33 0.67C204.00 0.72 207.33 0.83 210.67 1.00C214.00 1.17 218.44 1.44 221.33 1.67C224.22 1.89 225.11 2.06 228.00 2.33C230.89 2.61 235.33 3.00 238.67 3.33C242.00 3.67 245.11 3.94 248.00 4.33C250.89 4.72 253.11 5.17 256.00 5.67C258.89 6.17 262.44 6.72 265.33 7.33C268.22 7.94 270.78 8.56 273.33 9.33C275.89 10.11 278.17 10.89 280.67 12.00C283.17 13.11 285.78 14.39 288.33 16.00C290.89 17.61 293.61 19.67 296.00 21.67C298.39 23.67 300.44 25.61 302.67 28.00C304.89 30.39 307.50 33.33 309.33 36.00C311.17 38.67 312.22 41.00 313.67 44.00C315.11 47.00 316.72 50.56 318.00 54.00C319.28 57.44 320.39 61.00 321.33 64.67C322.28 68.33 323.28 71.78 323.67 76.00C324.06 80.22 323.61 85.33 323.67 90.00C323.72 94.67 323.94 99.67 324.00 104.00C324.06 108.33 324.00 112.00 324.00 116.00C324.00 120.00 324.00 124.33 324.00 128.00C324.00 131.67 324.00 134.67 324.00 138.00C324.00 141.33 324.00 144.67 324.00 148.00C324.00 151.33 324.00 155.00 324.00 158.00C324.00 161.00 324.00 163.33 324.00 166.00C324.00 168.67 324.00 171.33 324.00 174.00C324.00 176.67 324.00 179.33 324.00 182.00C324.00 184.67 324.00 187.33 324.00 190.00C324.00 192.67 324.00 195.67 324.00 198.00C324.00 200.33 324.00 201.67 324.00 204.00C324.00 206.33 324.00 209.67 324.00 212.00C324.00 214.33 324.00 216.00 324.00 218.00C324.00 220.00 324.00 222.00 324.00 224.00C324.00 226.00 324.00 228.00 324.00 230.00C324.00 232.00 324.00 234.00 324.00 236.00C324.00 238.00 324.00 240.00 324.00 242.00C324.00 244.00 324.00 246.00 324.00 248.00C324.00 250.00 324.00 252.00 324.00 254.00C324.00 256.00 324.00 258.00 324.00 260.00C324.00 262.00 324.00 264.00 324.00 266.00C324.00 268.00 324.00 270.00 324.00 272.00C324.00 274.00 324.00 276.00 324.00 278.00C324.00 280.00 324.00 282.00 324.00 284.00C324.00 286.00 324.00 288.00 324.00 290.00C324.00 292.00 324.00 294.00 324.00 296.00C324.00 298.00 324.00 300.00 324.00 302.00C324.00 304.00 324.00 306.00 324.00 308.00C324.00 310.00 324.00 312.00 324.00 314.00C324.00 316.00 324.00 318.00 324.00 320.00C324.00 322.00 324.00 324.00 324.00 326.00C324.00 328.00 324.00 330.00 324.00 332.00C324.00 334.00 324.00 336.00 324.00 338.00C324.00 340.00 324.00 342.00 324.00 344.00C324.00 346.00 324.00 348.00 324.00 350.00C324.00 352.00 324.00 354.00 324.00 356.00C324.00 358.00 324.00 360.00 324.00 362.00C324.00 364.00 324.00 366.00 324.00 368.00C324.00 370.00 324.00 372.00 324.00 374.00C324.00 376.00 324.00 378.00 324.00 380.00C324.00 382.00 324.00 384.00 324.00 386.00C324.00 388.00 324.00 390.00 324.00 392.00C324.00 394.00 324.00 396.00 324.00 398.00C324.00 400.00 324.00 402.00 324.00 404.00C324.00 406.00 324.00 408.00 324.00 410.00C324.00 412.00 324.00 414.00 324.00 416.00C324.00 418.00 324.00 420.00 324.00 422.00C324.00 424.00 324.00 426.00 324.00 428.00C324.00 430.00 324.00 432.00 324.00 434.00C324.00 436.00 324.00 437.67 324.00 440.00C324.00 442.33 324.00 445.67 324.00 448.00C324.00 450.33 324.00 452.00 324.00 454.00C324.00 456.00 324.00 457.67 324.00 460.00C324.00 462.33 324.00 465.33 324.00 468.00C324.00 470.67 324.00 473.33 324.00 476.00C324.00 478.67 324.00 481.33 324.00 484.00C324.00 486.67 324.00 489.33 324.00 492.00C324.00 494.67 324.00 497.00 324.00 500.00C324.00 503.00 324.00 507.00 324.00 510.00C324.00 513.00 324.00 515.00 324.00 518.00C324.00 521.00 324.00 524.33 324.00 528.00C324.00 531.67 324.00 536.00 324.00 540.00C324.00 544.00 324.00 548.00 324.00 552.00C324.00 556.00 324.00 559.67 324.00 564.00C324.00 568.33 324.22 573.67 324.00 578.00C323.78 582.33 323.28 586.00 322.67 590.00C322.06 594.00 321.28 598.33 320.33 602.00C319.39 605.67 318.39 608.78 317.00 612.00C315.61 615.22 313.72 618.56 312.00 621.33C310.28 624.11 308.78 626.22 306.67 628.67C304.56 631.11 301.78 633.83 299.33 636.00C296.89 638.17 294.33 640.17 292.00 641.67C289.67 643.17 287.78 643.83 285.33 645.00C282.89 646.17 280.00 647.56 277.33 648.67C274.67 649.78 272.17 650.78 269.33 651.67C266.50 652.56 263.00 653.33 260.33 654.00C257.67 654.67 256.28 655.11 253.33 655.67C250.39 656.22 245.78 656.83 242.67 657.33C239.56 657.83 237.33 658.22 234.67 658.67C232.00 659.11 229.78 659.56 226.67 660.00C223.56 660.44 218.89 661.06 216.00 661.33C213.11 661.61 212.00 661.50 209.33 661.67C206.67 661.83 203.11 662.17 200.00 662.33C196.89 662.50 193.56 662.61 190.67 662.67C187.78 662.72 185.33 662.67 182.67 662.67C180.00 662.67 177.56 662.61 174.67 662.67C171.78 662.72 168.44 662.94 165.33 663.00C162.22 663.06 159.11 663.00 156.00 663.00C152.89 663.00 149.56 662.94 146.67 663.00C143.78 663.06 141.56 663.39 138.67 663.33C135.78 663.28 132.00 662.83 129.33 662.67C126.67 662.50 125.56 662.44 122.67 662.33C119.78 662.22 114.94 662.17 112.00 662.00C109.06 661.83 107.89 661.67 105.00 661.33C102.11 661.00 97.94 660.39 94.67 660.00C91.39 659.61 88.39 659.44 85.33 659.00C82.28 658.56 79.22 657.89 76.33 657.33C73.44 656.78 70.72 656.28 68.00 655.67C65.28 655.06 62.89 654.44 60.00 653.67C57.11 652.89 53.33 651.89 50.67 651.00C48.00 650.11 46.44 649.56 44.00 648.33C41.56 647.11 38.39 645.17 36.00 643.67C33.61 642.17 31.89 641.11 29.67 639.33C27.44 637.56 24.89 635.33 22.67 633.00C20.44 630.67 18.17 627.94 16.33 625.33C14.50 622.72 13.17 620.67 11.67 617.33C10.17 614.00 8.39 609.33 7.33 605.33C6.28 601.33 5.89 597.33 5.33 593.33C4.78 589.33 4.39 585.67 4.00 581.33C3.61 577.00 3.17 571.67 3.00 567.33C2.83 563.00 3.00 559.33 3.00 555.33C3.00 551.33 3.00 547.00 3.00 543.33C3.00 539.67 3.06 536.89 3.00 533.33C2.94 529.78 2.67 525.67 2.67 522.00C2.67 518.33 2.94 514.44 3.00 511.33C3.06 508.22 3.00 506.33 3.00 503.33C3.00 500.33 3.06 496.33 3.00 493.33C2.94 490.33 2.72 488.00 2.67 485.33C2.61 482.67 2.67 479.67 2.67 477.33C2.67 475.00 2.67 473.67 2.67 471.33C2.67 469.00 2.67 466.00 2.67 463.33C2.67 460.67 2.78 457.67 2.67 455.33C2.56 453.00 2.11 451.33 2.00 449.33C1.89 447.33 1.94 445.33 2.00 443.33C2.06 441.33 2.33 439.33 2.33 437.33C2.33 435.33 2.06 433.33 2.00 431.33C1.94 429.33 2.00 427.33 2.00 425.33C2.00 423.33 2.00 421.33 2.00 419.33C2.00 417.33 2.00 415.33 2.00 413.33C2.00 411.33 2.00 409.33 2.00 407.33C2.00 405.33 2.00 403.33 2.00 401.33C2.00 399.33 2.00 397.33 2.00 395.33C2.00 393.33 2.00 391.33 2.00 389.33C2.00 387.33 2.06 385.33 2.00 383.33C1.94 381.33 1.72 379.33 1.67 377.33C1.61 375.33 1.61 373.33 1.67 371.33C1.72 369.33 2.00 367.33 2.00 365.33C2.00 363.33 1.72 361.33 1.67 359.33C1.61 357.33 1.61 355.33 1.67 353.33C1.72 351.33 2.00 349.33 2.00 347.33C2.00 345.33 1.72 343.33 1.67 341.33C1.61 339.33 1.67 337.00 1.67 335.33C1.67 333.67 1.67 333.00 1.67 331.33Z" transform="translate(6 6)"/></clipPath>
</defs>
<rect x="329.50" y="129.33" width="4.03" height="55.67" rx="1.2" fill="url(#key)"/><rect x="2.47" y="187.67" width="4.03" height="100.67" rx="1.2" fill="url(#key)"/>
<path d="M1.67 331.33C1.67 329.67 1.67 327.33 1.67 325.33C1.67 323.33 1.67 321.33 1.67 319.33C1.67 317.33 1.72 315.33 1.67 313.33C1.61 311.33 1.39 309.33 1.33 307.33C1.28 305.33 1.33 303.33 1.33 301.33C1.33 299.33 1.33 297.33 1.33 295.33C1.33 293.33 1.56 291.33 1.33 289.33C1.11 287.33 0.22 285.33 0.00 283.33C-0.22 281.33 0.00 279.33 0.00 277.33C0.00 275.33 0.00 273.33 0.00 271.33C0.00 269.33 0.00 267.33 0.00 265.33C0.00 263.33 0.00 261.33 0.00 259.33C0.00 257.33 0.00 255.33 0.00 253.33C0.00 251.33 0.00 249.33 0.00 247.33C0.00 245.33 0.00 243.33 0.00 241.33C0.00 239.33 0.00 237.33 0.00 235.33C0.00 233.33 0.00 231.33 0.00 229.33C0.00 227.33 0.00 225.67 0.00 223.33C0.00 221.00 0.00 217.67 0.00 215.33C0.00 213.00 0.00 211.33 0.00 209.33C0.00 207.33 0.00 205.67 0.00 203.33C0.00 201.00 0.00 198.00 0.00 195.33C0.00 192.67 0.00 189.67 0.00 187.33C0.00 185.00 -0.06 183.67 0.00 181.33C0.06 179.00 0.28 176.33 0.33 173.33C0.39 170.33 0.33 166.33 0.33 163.33C0.33 160.33 0.33 158.33 0.33 155.33C0.33 152.33 0.39 148.67 0.33 145.33C0.28 142.00 0.06 139.00 0.00 135.33C-0.06 131.67 0.00 127.33 0.00 123.33C0.00 119.33 0.00 115.33 0.00 111.33C0.00 107.33 0.00 103.67 0.00 99.33C0.00 95.00 -0.06 90.00 0.00 85.33C0.06 80.67 -0.11 75.67 0.33 71.33C0.78 67.00 1.78 63.00 2.67 59.33C3.56 55.67 4.33 52.89 5.67 49.33C7.00 45.78 8.94 41.11 10.67 38.00C12.39 34.89 13.94 33.11 16.00 30.67C18.06 28.22 20.78 25.39 23.00 23.33C25.22 21.28 26.83 20.00 29.33 18.33C31.83 16.67 35.33 14.67 38.00 13.33C40.67 12.00 42.78 11.22 45.33 10.33C47.89 9.44 50.67 8.67 53.33 8.00C56.00 7.33 58.44 6.83 61.33 6.33C64.22 5.83 67.33 5.44 70.67 5.00C74.00 4.56 78.44 4.00 81.33 3.67C84.22 3.33 85.11 3.28 88.00 3.00C90.89 2.72 95.50 2.28 98.67 2.00C101.83 1.72 104.33 1.44 107.00 1.33C109.67 1.22 111.83 1.44 114.67 1.33C117.50 1.22 121.11 0.78 124.00 0.67C126.89 0.56 129.11 0.72 132.00 0.67C134.89 0.61 138.44 0.39 141.33 0.33C144.22 0.28 146.44 0.39 149.33 0.33C152.22 0.28 155.56 0.06 158.67 0.00C161.78 -0.06 164.89 0.00 168.00 0.00C171.11 0.00 174.44 -0.06 177.33 0.00C180.22 0.06 182.44 0.22 185.33 0.33C188.22 0.44 192.00 0.61 194.67 0.67C197.33 0.72 198.67 0.61 201.33 0.67C204.00 0.72 207.33 0.83 210.67 1.00C214.00 1.17 218.44 1.44 221.33 1.67C224.22 1.89 225.11 2.06 228.00 2.33C230.89 2.61 235.33 3.00 238.67 3.33C242.00 3.67 245.11 3.94 248.00 4.33C250.89 4.72 253.11 5.17 256.00 5.67C258.89 6.17 262.44 6.72 265.33 7.33C268.22 7.94 270.78 8.56 273.33 9.33C275.89 10.11 278.17 10.89 280.67 12.00C283.17 13.11 285.78 14.39 288.33 16.00C290.89 17.61 293.61 19.67 296.00 21.67C298.39 23.67 300.44 25.61 302.67 28.00C304.89 30.39 307.50 33.33 309.33 36.00C311.17 38.67 312.22 41.00 313.67 44.00C315.11 47.00 316.72 50.56 318.00 54.00C319.28 57.44 320.39 61.00 321.33 64.67C322.28 68.33 323.28 71.78 323.67 76.00C324.06 80.22 323.61 85.33 323.67 90.00C323.72 94.67 323.94 99.67 324.00 104.00C324.06 108.33 324.00 112.00 324.00 116.00C324.00 120.00 324.00 124.33 324.00 128.00C324.00 131.67 324.00 134.67 324.00 138.00C324.00 141.33 324.00 144.67 324.00 148.00C324.00 151.33 324.00 155.00 324.00 158.00C324.00 161.00 324.00 163.33 324.00 166.00C324.00 168.67 324.00 171.33 324.00 174.00C324.00 176.67 324.00 179.33 324.00 182.00C324.00 184.67 324.00 187.33 324.00 190.00C324.00 192.67 324.00 195.67 324.00 198.00C324.00 200.33 324.00 201.67 324.00 204.00C324.00 206.33 324.00 209.67 324.00 212.00C324.00 214.33 324.00 216.00 324.00 218.00C324.00 220.00 324.00 222.00 324.00 224.00C324.00 226.00 324.00 228.00 324.00 230.00C324.00 232.00 324.00 234.00 324.00 236.00C324.00 238.00 324.00 240.00 324.00 242.00C324.00 244.00 324.00 246.00 324.00 248.00C324.00 250.00 324.00 252.00 324.00 254.00C324.00 256.00 324.00 258.00 324.00 260.00C324.00 262.00 324.00 264.00 324.00 266.00C324.00 268.00 324.00 270.00 324.00 272.00C324.00 274.00 324.00 276.00 324.00 278.00C324.00 280.00 324.00 282.00 324.00 284.00C324.00 286.00 324.00 288.00 324.00 290.00C324.00 292.00 324.00 294.00 324.00 296.00C324.00 298.00 324.00 300.00 324.00 302.00C324.00 304.00 324.00 306.00 324.00 308.00C324.00 310.00 324.00 312.00 324.00 314.00C324.00 316.00 324.00 318.00 324.00 320.00C324.00 322.00 324.00 324.00 324.00 326.00C324.00 328.00 324.00 330.00 324.00 332.00C324.00 334.00 324.00 336.00 324.00 338.00C324.00 340.00 324.00 342.00 324.00 344.00C324.00 346.00 324.00 348.00 324.00 350.00C324.00 352.00 324.00 354.00 324.00 356.00C324.00 358.00 324.00 360.00 324.00 362.00C324.00 364.00 324.00 366.00 324.00 368.00C324.00 370.00 324.00 372.00 324.00 374.00C324.00 376.00 324.00 378.00 324.00 380.00C324.00 382.00 324.00 384.00 324.00 386.00C324.00 388.00 324.00 390.00 324.00 392.00C324.00 394.00 324.00 396.00 324.00 398.00C324.00 400.00 324.00 402.00 324.00 404.00C324.00 406.00 324.00 408.00 324.00 410.00C324.00 412.00 324.00 414.00 324.00 416.00C324.00 418.00 324.00 420.00 324.00 422.00C324.00 424.00 324.00 426.00 324.00 428.00C324.00 430.00 324.00 432.00 324.00 434.00C324.00 436.00 324.00 437.67 324.00 440.00C324.00 442.33 324.00 445.67 324.00 448.00C324.00 450.33 324.00 452.00 324.00 454.00C324.00 456.00 324.00 457.67 324.00 460.00C324.00 462.33 324.00 465.33 324.00 468.00C324.00 470.67 324.00 473.33 324.00 476.00C324.00 478.67 324.00 481.33 324.00 484.00C324.00 486.67 324.00 489.33 324.00 492.00C324.00 494.67 324.00 497.00 324.00 500.00C324.00 503.00 324.00 507.00 324.00 510.00C324.00 513.00 324.00 515.00 324.00 518.00C324.00 521.00 324.00 524.33 324.00 528.00C324.00 531.67 324.00 536.00 324.00 540.00C324.00 544.00 324.00 548.00 324.00 552.00C324.00 556.00 324.00 559.67 324.00 564.00C324.00 568.33 324.22 573.67 324.00 578.00C323.78 582.33 323.28 586.00 322.67 590.00C322.06 594.00 321.28 598.33 320.33 602.00C319.39 605.67 318.39 608.78 317.00 612.00C315.61 615.22 313.72 618.56 312.00 621.33C310.28 624.11 308.78 626.22 306.67 628.67C304.56 631.11 301.78 633.83 299.33 636.00C296.89 638.17 294.33 640.17 292.00 641.67C289.67 643.17 287.78 643.83 285.33 645.00C282.89 646.17 280.00 647.56 277.33 648.67C274.67 649.78 272.17 650.78 269.33 651.67C266.50 652.56 263.00 653.33 260.33 654.00C257.67 654.67 256.28 655.11 253.33 655.67C250.39 656.22 245.78 656.83 242.67 657.33C239.56 657.83 237.33 658.22 234.67 658.67C232.00 659.11 229.78 659.56 226.67 660.00C223.56 660.44 218.89 661.06 216.00 661.33C213.11 661.61 212.00 661.50 209.33 661.67C206.67 661.83 203.11 662.17 200.00 662.33C196.89 662.50 193.56 662.61 190.67 662.67C187.78 662.72 185.33 662.67 182.67 662.67C180.00 662.67 177.56 662.61 174.67 662.67C171.78 662.72 168.44 662.94 165.33 663.00C162.22 663.06 159.11 663.00 156.00 663.00C152.89 663.00 149.56 662.94 146.67 663.00C143.78 663.06 141.56 663.39 138.67 663.33C135.78 663.28 132.00 662.83 129.33 662.67C126.67 662.50 125.56 662.44 122.67 662.33C119.78 662.22 114.94 662.17 112.00 662.00C109.06 661.83 107.89 661.67 105.00 661.33C102.11 661.00 97.94 660.39 94.67 660.00C91.39 659.61 88.39 659.44 85.33 659.00C82.28 658.56 79.22 657.89 76.33 657.33C73.44 656.78 70.72 656.28 68.00 655.67C65.28 655.06 62.89 654.44 60.00 653.67C57.11 652.89 53.33 651.89 50.67 651.00C48.00 650.11 46.44 649.56 44.00 648.33C41.56 647.11 38.39 645.17 36.00 643.67C33.61 642.17 31.89 641.11 29.67 639.33C27.44 637.56 24.89 635.33 22.67 633.00C20.44 630.67 18.17 627.94 16.33 625.33C14.50 622.72 13.17 620.67 11.67 617.33C10.17 614.00 8.39 609.33 7.33 605.33C6.28 601.33 5.89 597.33 5.33 593.33C4.78 589.33 4.39 585.67 4.00 581.33C3.61 577.00 3.17 571.67 3.00 567.33C2.83 563.00 3.00 559.33 3.00 555.33C3.00 551.33 3.00 547.00 3.00 543.33C3.00 539.67 3.06 536.89 3.00 533.33C2.94 529.78 2.67 525.67 2.67 522.00C2.67 518.33 2.94 514.44 3.00 511.33C3.06 508.22 3.00 506.33 3.00 503.33C3.00 500.33 3.06 496.33 3.00 493.33C2.94 490.33 2.72 488.00 2.67 485.33C2.61 482.67 2.67 479.67 2.67 477.33C2.67 475.00 2.67 473.67 2.67 471.33C2.67 469.00 2.67 466.00 2.67 463.33C2.67 460.67 2.78 457.67 2.67 455.33C2.56 453.00 2.11 451.33 2.00 449.33C1.89 447.33 1.94 445.33 2.00 443.33C2.06 441.33 2.33 439.33 2.33 437.33C2.33 435.33 2.06 433.33 2.00 431.33C1.94 429.33 2.00 427.33 2.00 425.33C2.00 423.33 2.00 421.33 2.00 419.33C2.00 417.33 2.00 415.33 2.00 413.33C2.00 411.33 2.00 409.33 2.00 407.33C2.00 405.33 2.00 403.33 2.00 401.33C2.00 399.33 2.00 397.33 2.00 395.33C2.00 393.33 2.00 391.33 2.00 389.33C2.00 387.33 2.06 385.33 2.00 383.33C1.94 381.33 1.72 379.33 1.67 377.33C1.61 375.33 1.61 373.33 1.67 371.33C1.72 369.33 2.00 367.33 2.00 365.33C2.00 363.33 1.72 361.33 1.67 359.33C1.61 357.33 1.61 355.33 1.67 353.33C1.72 351.33 2.00 349.33 2.00 347.33C2.00 345.33 1.72 343.33 1.67 341.33C1.61 339.33 1.67 337.00 1.67 335.33C1.67 333.67 1.67 333.00 1.67 331.33Z" transform="translate(6 6)" fill="url(#body)" stroke="url(#rim)" stroke-width="2.2"/>
<g clip-path="url(#clip)"><path d="M1.67 331.33C1.67 329.67 1.67 327.33 1.67 325.33C1.67 323.33 1.67 321.33 1.67 319.33C1.67 317.33 1.72 315.33 1.67 313.33C1.61 311.33 1.39 309.33 1.33 307.33C1.28 305.33 1.33 303.33 1.33 301.33C1.33 299.33 1.33 297.33 1.33 295.33C1.33 293.33 1.56 291.33 1.33 289.33C1.11 287.33 0.22 285.33 0.00 283.33C-0.22 281.33 0.00 279.33 0.00 277.33C0.00 275.33 0.00 273.33 0.00 271.33C0.00 269.33 0.00 267.33 0.00 265.33C0.00 263.33 0.00 261.33 0.00 259.33C0.00 257.33 0.00 255.33 0.00 253.33C0.00 251.33 0.00 249.33 0.00 247.33C0.00 245.33 0.00 243.33 0.00 241.33C0.00 239.33 0.00 237.33 0.00 235.33C0.00 233.33 0.00 231.33 0.00 229.33C0.00 227.33 0.00 225.67 0.00 223.33C0.00 221.00 0.00 217.67 0.00 215.33C0.00 213.00 0.00 211.33 0.00 209.33C0.00 207.33 0.00 205.67 0.00 203.33C0.00 201.00 0.00 198.00 0.00 195.33C0.00 192.67 0.00 189.67 0.00 187.33C0.00 185.00 -0.06 183.67 0.00 181.33C0.06 179.00 0.28 176.33 0.33 173.33C0.39 170.33 0.33 166.33 0.33 163.33C0.33 160.33 0.33 158.33 0.33 155.33C0.33 152.33 0.39 148.67 0.33 145.33C0.28 142.00 0.06 139.00 0.00 135.33C-0.06 131.67 0.00 127.33 0.00 123.33C0.00 119.33 0.00 115.33 0.00 111.33C0.00 107.33 0.00 103.67 0.00 99.33C0.00 95.00 -0.06 90.00 0.00 85.33C0.06 80.67 -0.11 75.67 0.33 71.33C0.78 67.00 1.78 63.00 2.67 59.33C3.56 55.67 4.33 52.89 5.67 49.33C7.00 45.78 8.94 41.11 10.67 38.00C12.39 34.89 13.94 33.11 16.00 30.67C18.06 28.22 20.78 25.39 23.00 23.33C25.22 21.28 26.83 20.00 29.33 18.33C31.83 16.67 35.33 14.67 38.00 13.33C40.67 12.00 42.78 11.22 45.33 10.33C47.89 9.44 50.67 8.67 53.33 8.00C56.00 7.33 58.44 6.83 61.33 6.33C64.22 5.83 67.33 5.44 70.67 5.00C74.00 4.56 78.44 4.00 81.33 3.67C84.22 3.33 85.11 3.28 88.00 3.00C90.89 2.72 95.50 2.28 98.67 2.00C101.83 1.72 104.33 1.44 107.00 1.33C109.67 1.22 111.83 1.44 114.67 1.33C117.50 1.22 121.11 0.78 124.00 0.67C126.89 0.56 129.11 0.72 132.00 0.67C134.89 0.61 138.44 0.39 141.33 0.33C144.22 0.28 146.44 0.39 149.33 0.33C152.22 0.28 155.56 0.06 158.67 0.00C161.78 -0.06 164.89 0.00 168.00 0.00C171.11 0.00 174.44 -0.06 177.33 0.00C180.22 0.06 182.44 0.22 185.33 0.33C188.22 0.44 192.00 0.61 194.67 0.67C197.33 0.72 198.67 0.61 201.33 0.67C204.00 0.72 207.33 0.83 210.67 1.00C214.00 1.17 218.44 1.44 221.33 1.67C224.22 1.89 225.11 2.06 228.00 2.33C230.89 2.61 235.33 3.00 238.67 3.33C242.00 3.67 245.11 3.94 248.00 4.33C250.89 4.72 253.11 5.17 256.00 5.67C258.89 6.17 262.44 6.72 265.33 7.33C268.22 7.94 270.78 8.56 273.33 9.33C275.89 10.11 278.17 10.89 280.67 12.00C283.17 13.11 285.78 14.39 288.33 16.00C290.89 17.61 293.61 19.67 296.00 21.67C298.39 23.67 300.44 25.61 302.67 28.00C304.89 30.39 307.50 33.33 309.33 36.00C311.17 38.67 312.22 41.00 313.67 44.00C315.11 47.00 316.72 50.56 318.00 54.00C319.28 57.44 320.39 61.00 321.33 64.67C322.28 68.33 323.28 71.78 323.67 76.00C324.06 80.22 323.61 85.33 323.67 90.00C323.72 94.67 323.94 99.67 324.00 104.00C324.06 108.33 324.00 112.00 324.00 116.00C324.00 120.00 324.00 124.33 324.00 128.00C324.00 131.67 324.00 134.67 324.00 138.00C324.00 141.33 324.00 144.67 324.00 148.00C324.00 151.33 324.00 155.00 324.00 158.00C324.00 161.00 324.00 163.33 324.00 166.00C324.00 168.67 324.00 171.33 324.00 174.00C324.00 176.67 324.00 179.33 324.00 182.00C324.00 184.67 324.00 187.33 324.00 190.00C324.00 192.67 324.00 195.67 324.00 198.00C324.00 200.33 324.00 201.67 324.00 204.00C324.00 206.33 324.00 209.67 324.00 212.00C324.00 214.33 324.00 216.00 324.00 218.00C324.00 220.00 324.00 222.00 324.00 224.00C324.00 226.00 324.00 228.00 324.00 230.00C324.00 232.00 324.00 234.00 324.00 236.00C324.00 238.00 324.00 240.00 324.00 242.00C324.00 244.00 324.00 246.00 324.00 248.00C324.00 250.00 324.00 252.00 324.00 254.00C324.00 256.00 324.00 258.00 324.00 260.00C324.00 262.00 324.00 264.00 324.00 266.00C324.00 268.00 324.00 270.00 324.00 272.00C324.00 274.00 324.00 276.00 324.00 278.00C324.00 280.00 324.00 282.00 324.00 284.00C324.00 286.00 324.00 288.00 324.00 290.00C324.00 292.00 324.00 294.00 324.00 296.00C324.00 298.00 324.00 300.00 324.00 302.00C324.00 304.00 324.00 306.00 324.00 308.00C324.00 310.00 324.00 312.00 324.00 314.00C324.00 316.00 324.00 318.00 324.00 320.00C324.00 322.00 324.00 324.00 324.00 326.00C324.00 328.00 324.00 330.00 324.00 332.00C324.00 334.00 324.00 336.00 324.00 338.00C324.00 340.00 324.00 342.00 324.00 344.00C324.00 346.00 324.00 348.00 324.00 350.00C324.00 352.00 324.00 354.00 324.00 356.00C324.00 358.00 324.00 360.00 324.00 362.00C324.00 364.00 324.00 366.00 324.00 368.00C324.00 370.00 324.00 372.00 324.00 374.00C324.00 376.00 324.00 378.00 324.00 380.00C324.00 382.00 324.00 384.00 324.00 386.00C324.00 388.00 324.00 390.00 324.00 392.00C324.00 394.00 324.00 396.00 324.00 398.00C324.00 400.00 324.00 402.00 324.00 404.00C324.00 406.00 324.00 408.00 324.00 410.00C324.00 412.00 324.00 414.00 324.00 416.00C324.00 418.00 324.00 420.00 324.00 422.00C324.00 424.00 324.00 426.00 324.00 428.00C324.00 430.00 324.00 432.00 324.00 434.00C324.00 436.00 324.00 437.67 324.00 440.00C324.00 442.33 324.00 445.67 324.00 448.00C324.00 450.33 324.00 452.00 324.00 454.00C324.00 456.00 324.00 457.67 324.00 460.00C324.00 462.33 324.00 465.33 324.00 468.00C324.00 470.67 324.00 473.33 324.00 476.00C324.00 478.67 324.00 481.33 324.00 484.00C324.00 486.67 324.00 489.33 324.00 492.00C324.00 494.67 324.00 497.00 324.00 500.00C324.00 503.00 324.00 507.00 324.00 510.00C324.00 513.00 324.00 515.00 324.00 518.00C324.00 521.00 324.00 524.33 324.00 528.00C324.00 531.67 324.00 536.00 324.00 540.00C324.00 544.00 324.00 548.00 324.00 552.00C324.00 556.00 324.00 559.67 324.00 564.00C324.00 568.33 324.22 573.67 324.00 578.00C323.78 582.33 323.28 586.00 322.67 590.00C322.06 594.00 321.28 598.33 320.33 602.00C319.39 605.67 318.39 608.78 317.00 612.00C315.61 615.22 313.72 618.56 312.00 621.33C310.28 624.11 308.78 626.22 306.67 628.67C304.56 631.11 301.78 633.83 299.33 636.00C296.89 638.17 294.33 640.17 292.00 641.67C289.67 643.17 287.78 643.83 285.33 645.00C282.89 646.17 280.00 647.56 277.33 648.67C274.67 649.78 272.17 650.78 269.33 651.67C266.50 652.56 263.00 653.33 260.33 654.00C257.67 654.67 256.28 655.11 253.33 655.67C250.39 656.22 245.78 656.83 242.67 657.33C239.56 657.83 237.33 658.22 234.67 658.67C232.00 659.11 229.78 659.56 226.67 660.00C223.56 660.44 218.89 661.06 216.00 661.33C213.11 661.61 212.00 661.50 209.33 661.67C206.67 661.83 203.11 662.17 200.00 662.33C196.89 662.50 193.56 662.61 190.67 662.67C187.78 662.72 185.33 662.67 182.67 662.67C180.00 662.67 177.56 662.61 174.67 662.67C171.78 662.72 168.44 662.94 165.33 663.00C162.22 663.06 159.11 663.00 156.00 663.00C152.89 663.00 149.56 662.94 146.67 663.00C143.78 663.06 141.56 663.39 138.67 663.33C135.78 663.28 132.00 662.83 129.33 662.67C126.67 662.50 125.56 662.44 122.67 662.33C119.78 662.22 114.94 662.17 112.00 662.00C109.06 661.83 107.89 661.67 105.00 661.33C102.11 661.00 97.94 660.39 94.67 660.00C91.39 659.61 88.39 659.44 85.33 659.00C82.28 658.56 79.22 657.89 76.33 657.33C73.44 656.78 70.72 656.28 68.00 655.67C65.28 655.06 62.89 654.44 60.00 653.67C57.11 652.89 53.33 651.89 50.67 651.00C48.00 650.11 46.44 649.56 44.00 648.33C41.56 647.11 38.39 645.17 36.00 643.67C33.61 642.17 31.89 641.11 29.67 639.33C27.44 637.56 24.89 635.33 22.67 633.00C20.44 630.67 18.17 627.94 16.33 625.33C14.50 622.72 13.17 620.67 11.67 617.33C10.17 614.00 8.39 609.33 7.33 605.33C6.28 601.33 5.89 597.33 5.33 593.33C4.78 589.33 4.39 585.67 4.00 581.33C3.61 577.00 3.17 571.67 3.00 567.33C2.83 563.00 3.00 559.33 3.00 555.33C3.00 551.33 3.00 547.00 3.00 543.33C3.00 539.67 3.06 536.89 3.00 533.33C2.94 529.78 2.67 525.67 2.67 522.00C2.67 518.33 2.94 514.44 3.00 511.33C3.06 508.22 3.00 506.33 3.00 503.33C3.00 500.33 3.06 496.33 3.00 493.33C2.94 490.33 2.72 488.00 2.67 485.33C2.61 482.67 2.67 479.67 2.67 477.33C2.67 475.00 2.67 473.67 2.67 471.33C2.67 469.00 2.67 466.00 2.67 463.33C2.67 460.67 2.78 457.67 2.67 455.33C2.56 453.00 2.11 451.33 2.00 449.33C1.89 447.33 1.94 445.33 2.00 443.33C2.06 441.33 2.33 439.33 2.33 437.33C2.33 435.33 2.06 433.33 2.00 431.33C1.94 429.33 2.00 427.33 2.00 425.33C2.00 423.33 2.00 421.33 2.00 419.33C2.00 417.33 2.00 415.33 2.00 413.33C2.00 411.33 2.00 409.33 2.00 407.33C2.00 405.33 2.00 403.33 2.00 401.33C2.00 399.33 2.00 397.33 2.00 395.33C2.00 393.33 2.00 391.33 2.00 389.33C2.00 387.33 2.06 385.33 2.00 383.33C1.94 381.33 1.72 379.33 1.67 377.33C1.61 375.33 1.61 373.33 1.67 371.33C1.72 369.33 2.00 367.33 2.00 365.33C2.00 363.33 1.72 361.33 1.67 359.33C1.61 357.33 1.61 355.33 1.67 353.33C1.72 351.33 2.00 349.33 2.00 347.33C2.00 345.33 1.72 343.33 1.67 341.33C1.61 339.33 1.67 337.00 1.67 335.33C1.67 333.67 1.67 333.00 1.67 331.33Z" transform="translate(6 6) scale(0.9907 0.9955) translate(1.5 1.5)" fill="none" stroke="#ffffff" stroke-opacity=".07" stroke-width="1.2"/>
<path d="M1.67 331.33C1.67 329.67 1.67 327.33 1.67 325.33C1.67 323.33 1.67 321.33 1.67 319.33C1.67 317.33 1.72 315.33 1.67 313.33C1.61 311.33 1.39 309.33 1.33 307.33C1.28 305.33 1.33 303.33 1.33 301.33C1.33 299.33 1.33 297.33 1.33 295.33C1.33 293.33 1.56 291.33 1.33 289.33C1.11 287.33 0.22 285.33 0.00 283.33C-0.22 281.33 0.00 279.33 0.00 277.33C0.00 275.33 0.00 273.33 0.00 271.33C0.00 269.33 0.00 267.33 0.00 265.33C0.00 263.33 0.00 261.33 0.00 259.33C0.00 257.33 0.00 255.33 0.00 253.33C0.00 251.33 0.00 249.33 0.00 247.33C0.00 245.33 0.00 243.33 0.00 241.33C0.00 239.33 0.00 237.33 0.00 235.33C0.00 233.33 0.00 231.33 0.00 229.33C0.00 227.33 0.00 225.67 0.00 223.33C0.00 221.00 0.00 217.67 0.00 215.33C0.00 213.00 0.00 211.33 0.00 209.33C0.00 207.33 0.00 205.67 0.00 203.33C0.00 201.00 0.00 198.00 0.00 195.33C0.00 192.67 0.00 189.67 0.00 187.33C0.00 185.00 -0.06 183.67 0.00 181.33C0.06 179.00 0.28 176.33 0.33 173.33C0.39 170.33 0.33 166.33 0.33 163.33C0.33 160.33 0.33 158.33 0.33 155.33C0.33 152.33 0.39 148.67 0.33 145.33C0.28 142.00 0.06 139.00 0.00 135.33C-0.06 131.67 0.00 127.33 0.00 123.33C0.00 119.33 0.00 115.33 0.00 111.33C0.00 107.33 0.00 103.67 0.00 99.33C0.00 95.00 -0.06 90.00 0.00 85.33C0.06 80.67 -0.11 75.67 0.33 71.33C0.78 67.00 1.78 63.00 2.67 59.33C3.56 55.67 4.33 52.89 5.67 49.33C7.00 45.78 8.94 41.11 10.67 38.00C12.39 34.89 13.94 33.11 16.00 30.67C18.06 28.22 20.78 25.39 23.00 23.33C25.22 21.28 26.83 20.00 29.33 18.33C31.83 16.67 35.33 14.67 38.00 13.33C40.67 12.00 42.78 11.22 45.33 10.33C47.89 9.44 50.67 8.67 53.33 8.00C56.00 7.33 58.44 6.83 61.33 6.33C64.22 5.83 67.33 5.44 70.67 5.00C74.00 4.56 78.44 4.00 81.33 3.67C84.22 3.33 85.11 3.28 88.00 3.00C90.89 2.72 95.50 2.28 98.67 2.00C101.83 1.72 104.33 1.44 107.00 1.33C109.67 1.22 111.83 1.44 114.67 1.33C117.50 1.22 121.11 0.78 124.00 0.67C126.89 0.56 129.11 0.72 132.00 0.67C134.89 0.61 138.44 0.39 141.33 0.33C144.22 0.28 146.44 0.39 149.33 0.33C152.22 0.28 155.56 0.06 158.67 0.00C161.78 -0.06 164.89 0.00 168.00 0.00C171.11 0.00 174.44 -0.06 177.33 0.00C180.22 0.06 182.44 0.22 185.33 0.33C188.22 0.44 192.00 0.61 194.67 0.67C197.33 0.72 198.67 0.61 201.33 0.67C204.00 0.72 207.33 0.83 210.67 1.00C214.00 1.17 218.44 1.44 221.33 1.67C224.22 1.89 225.11 2.06 228.00 2.33C230.89 2.61 235.33 3.00 238.67 3.33C242.00 3.67 245.11 3.94 248.00 4.33C250.89 4.72 253.11 5.17 256.00 5.67C258.89 6.17 262.44 6.72 265.33 7.33C268.22 7.94 270.78 8.56 273.33 9.33C275.89 10.11 278.17 10.89 280.67 12.00C283.17 13.11 285.78 14.39 288.33 16.00C290.89 17.61 293.61 19.67 296.00 21.67C298.39 23.67 300.44 25.61 302.67 28.00C304.89 30.39 307.50 33.33 309.33 36.00C311.17 38.67 312.22 41.00 313.67 44.00C315.11 47.00 316.72 50.56 318.00 54.00C319.28 57.44 320.39 61.00 321.33 64.67C322.28 68.33 323.28 71.78 323.67 76.00C324.06 80.22 323.61 85.33 323.67 90.00C323.72 94.67 323.94 99.67 324.00 104.00C324.06 108.33 324.00 112.00 324.00 116.00C324.00 120.00 324.00 124.33 324.00 128.00C324.00 131.67 324.00 134.67 324.00 138.00C324.00 141.33 324.00 144.67 324.00 148.00C324.00 151.33 324.00 155.00 324.00 158.00C324.00 161.00 324.00 163.33 324.00 166.00C324.00 168.67 324.00 171.33 324.00 174.00C324.00 176.67 324.00 179.33 324.00 182.00C324.00 184.67 324.00 187.33 324.00 190.00C324.00 192.67 324.00 195.67 324.00 198.00C324.00 200.33 324.00 201.67 324.00 204.00C324.00 206.33 324.00 209.67 324.00 212.00C324.00 214.33 324.00 216.00 324.00 218.00C324.00 220.00 324.00 222.00 324.00 224.00C324.00 226.00 324.00 228.00 324.00 230.00C324.00 232.00 324.00 234.00 324.00 236.00C324.00 238.00 324.00 240.00 324.00 242.00C324.00 244.00 324.00 246.00 324.00 248.00C324.00 250.00 324.00 252.00 324.00 254.00C324.00 256.00 324.00 258.00 324.00 260.00C324.00 262.00 324.00 264.00 324.00 266.00C324.00 268.00 324.00 270.00 324.00 272.00C324.00 274.00 324.00 276.00 324.00 278.00C324.00 280.00 324.00 282.00 324.00 284.00C324.00 286.00 324.00 288.00 324.00 290.00C324.00 292.00 324.00 294.00 324.00 296.00C324.00 298.00 324.00 300.00 324.00 302.00C324.00 304.00 324.00 306.00 324.00 308.00C324.00 310.00 324.00 312.00 324.00 314.00C324.00 316.00 324.00 318.00 324.00 320.00C324.00 322.00 324.00 324.00 324.00 326.00C324.00 328.00 324.00 330.00 324.00 332.00C324.00 334.00 324.00 336.00 324.00 338.00C324.00 340.00 324.00 342.00 324.00 344.00C324.00 346.00 324.00 348.00 324.00 350.00C324.00 352.00 324.00 354.00 324.00 356.00C324.00 358.00 324.00 360.00 324.00 362.00C324.00 364.00 324.00 366.00 324.00 368.00C324.00 370.00 324.00 372.00 324.00 374.00C324.00 376.00 324.00 378.00 324.00 380.00C324.00 382.00 324.00 384.00 324.00 386.00C324.00 388.00 324.00 390.00 324.00 392.00C324.00 394.00 324.00 396.00 324.00 398.00C324.00 400.00 324.00 402.00 324.00 404.00C324.00 406.00 324.00 408.00 324.00 410.00C324.00 412.00 324.00 414.00 324.00 416.00C324.00 418.00 324.00 420.00 324.00 422.00C324.00 424.00 324.00 426.00 324.00 428.00C324.00 430.00 324.00 432.00 324.00 434.00C324.00 436.00 324.00 437.67 324.00 440.00C324.00 442.33 324.00 445.67 324.00 448.00C324.00 450.33 324.00 452.00 324.00 454.00C324.00 456.00 324.00 457.67 324.00 460.00C324.00 462.33 324.00 465.33 324.00 468.00C324.00 470.67 324.00 473.33 324.00 476.00C324.00 478.67 324.00 481.33 324.00 484.00C324.00 486.67 324.00 489.33 324.00 492.00C324.00 494.67 324.00 497.00 324.00 500.00C324.00 503.00 324.00 507.00 324.00 510.00C324.00 513.00 324.00 515.00 324.00 518.00C324.00 521.00 324.00 524.33 324.00 528.00C324.00 531.67 324.00 536.00 324.00 540.00C324.00 544.00 324.00 548.00 324.00 552.00C324.00 556.00 324.00 559.67 324.00 564.00C324.00 568.33 324.22 573.67 324.00 578.00C323.78 582.33 323.28 586.00 322.67 590.00C322.06 594.00 321.28 598.33 320.33 602.00C319.39 605.67 318.39 608.78 317.00 612.00C315.61 615.22 313.72 618.56 312.00 621.33C310.28 624.11 308.78 626.22 306.67 628.67C304.56 631.11 301.78 633.83 299.33 636.00C296.89 638.17 294.33 640.17 292.00 641.67C289.67 643.17 287.78 643.83 285.33 645.00C282.89 646.17 280.00 647.56 277.33 648.67C274.67 649.78 272.17 650.78 269.33 651.67C266.50 652.56 263.00 653.33 260.33 654.00C257.67 654.67 256.28 655.11 253.33 655.67C250.39 656.22 245.78 656.83 242.67 657.33C239.56 657.83 237.33 658.22 234.67 658.67C232.00 659.11 229.78 659.56 226.67 660.00C223.56 660.44 218.89 661.06 216.00 661.33C213.11 661.61 212.00 661.50 209.33 661.67C206.67 661.83 203.11 662.17 200.00 662.33C196.89 662.50 193.56 662.61 190.67 662.67C187.78 662.72 185.33 662.67 182.67 662.67C180.00 662.67 177.56 662.61 174.67 662.67C171.78 662.72 168.44 662.94 165.33 663.00C162.22 663.06 159.11 663.00 156.00 663.00C152.89 663.00 149.56 662.94 146.67 663.00C143.78 663.06 141.56 663.39 138.67 663.33C135.78 663.28 132.00 662.83 129.33 662.67C126.67 662.50 125.56 662.44 122.67 662.33C119.78 662.22 114.94 662.17 112.00 662.00C109.06 661.83 107.89 661.67 105.00 661.33C102.11 661.00 97.94 660.39 94.67 660.00C91.39 659.61 88.39 659.44 85.33 659.00C82.28 658.56 79.22 657.89 76.33 657.33C73.44 656.78 70.72 656.28 68.00 655.67C65.28 655.06 62.89 654.44 60.00 653.67C57.11 652.89 53.33 651.89 50.67 651.00C48.00 650.11 46.44 649.56 44.00 648.33C41.56 647.11 38.39 645.17 36.00 643.67C33.61 642.17 31.89 641.11 29.67 639.33C27.44 637.56 24.89 635.33 22.67 633.00C20.44 630.67 18.17 627.94 16.33 625.33C14.50 622.72 13.17 620.67 11.67 617.33C10.17 614.00 8.39 609.33 7.33 605.33C6.28 601.33 5.89 597.33 5.33 593.33C4.78 589.33 4.39 585.67 4.00 581.33C3.61 577.00 3.17 571.67 3.00 567.33C2.83 563.00 3.00 559.33 3.00 555.33C3.00 551.33 3.00 547.00 3.00 543.33C3.00 539.67 3.06 536.89 3.00 533.33C2.94 529.78 2.67 525.67 2.67 522.00C2.67 518.33 2.94 514.44 3.00 511.33C3.06 508.22 3.00 506.33 3.00 503.33C3.00 500.33 3.06 496.33 3.00 493.33C2.94 490.33 2.72 488.00 2.67 485.33C2.61 482.67 2.67 479.67 2.67 477.33C2.67 475.00 2.67 473.67 2.67 471.33C2.67 469.00 2.67 466.00 2.67 463.33C2.67 460.67 2.78 457.67 2.67 455.33C2.56 453.00 2.11 451.33 2.00 449.33C1.89 447.33 1.94 445.33 2.00 443.33C2.06 441.33 2.33 439.33 2.33 437.33C2.33 435.33 2.06 433.33 2.00 431.33C1.94 429.33 2.00 427.33 2.00 425.33C2.00 423.33 2.00 421.33 2.00 419.33C2.00 417.33 2.00 415.33 2.00 413.33C2.00 411.33 2.00 409.33 2.00 407.33C2.00 405.33 2.00 403.33 2.00 401.33C2.00 399.33 2.00 397.33 2.00 395.33C2.00 393.33 2.00 391.33 2.00 389.33C2.00 387.33 2.06 385.33 2.00 383.33C1.94 381.33 1.72 379.33 1.67 377.33C1.61 375.33 1.61 373.33 1.67 371.33C1.72 369.33 2.00 367.33 2.00 365.33C2.00 363.33 1.72 361.33 1.67 359.33C1.61 357.33 1.61 355.33 1.67 353.33C1.72 351.33 2.00 349.33 2.00 347.33C2.00 345.33 1.72 343.33 1.67 341.33C1.61 339.33 1.67 337.00 1.67 335.33C1.67 333.67 1.67 333.00 1.67 331.33Z" transform="translate(10.5 10.5) scale(0.9722 0.9864)" fill="none" stroke="url(#glassEdge)" stroke-width="1.1"/><rect x="0" y="0" width="336.00" height="675.33" fill="url(#glare)"/><rect x="0" y="0" width="336.00" height="675.33" fill="url(#chin)"/></g>
<rect x="126.67" y="47.33" width="79.33" height="10.00" rx="5.00" fill="url(#grille)" stroke="#3b3f42" stroke-width=".7"/><circle cx="131.67" cy="52.33" r=".45" fill="#2a2e31"/><circle cx="133.59" cy="52.33" r=".45" fill="#2a2e31"/><circle cx="135.52" cy="52.33" r=".45" fill="#2a2e31"/><circle cx="137.44" cy="52.33" r=".45" fill="#2a2e31"/><circle cx="139.37" cy="52.33" r=".45" fill="#2a2e31"/><circle cx="141.30" cy="52.33" r=".45" fill="#2a2e31"/><circle cx="143.22" cy="52.33" r=".45" fill="#2a2e31"/><circle cx="145.15" cy="52.33" r=".45" fill="#2a2e31"/><circle cx="147.07" cy="52.33" r=".45" fill="#2a2e31"/><circle cx="149.00" cy="52.33" r=".45" fill="#2a2e31"/><circle cx="150.93" cy="52.33" r=".45" fill="#2a2e31"/><circle cx="152.85" cy="52.33" r=".45" fill="#2a2e31"/><circle cx="154.78" cy="52.33" r=".45" fill="#2a2e31"/><circle cx="156.70" cy="52.33" r=".45" fill="#2a2e31"/><circle cx="158.63" cy="52.33" r=".45" fill="#2a2e31"/><circle cx="160.56" cy="52.33" r=".45" fill="#2a2e31"/><circle cx="162.48" cy="52.33" r=".45" fill="#2a2e31"/><circle cx="164.41" cy="52.33" r=".45" fill="#2a2e31"/><circle cx="166.33" cy="52.33" r=".45" fill="#2a2e31"/><circle cx="168.26" cy="52.33" r=".45" fill="#2a2e31"/><circle cx="170.19" cy="52.33" r=".45" fill="#2a2e31"/><circle cx="172.11" cy="52.33" r=".45" fill="#2a2e31"/><circle cx="174.04" cy="52.33" r=".45" fill="#2a2e31"/><circle cx="175.96" cy="52.33" r=".45" fill="#2a2e31"/><circle cx="177.89" cy="52.33" r=".45" fill="#2a2e31"/><circle cx="179.81" cy="52.33" r=".45" fill="#2a2e31"/><circle cx="181.74" cy="52.33" r=".45" fill="#2a2e31"/><circle cx="183.67" cy="52.33" r=".45" fill="#2a2e31"/><circle cx="185.59" cy="52.33" r=".45" fill="#2a2e31"/><circle cx="187.52" cy="52.33" r=".45" fill="#2a2e31"/><circle cx="189.44" cy="52.33" r=".45" fill="#2a2e31"/><circle cx="191.37" cy="52.33" r=".45" fill="#2a2e31"/><circle cx="193.30" cy="52.33" r=".45" fill="#2a2e31"/><circle cx="195.22" cy="52.33" r=".45" fill="#2a2e31"/><circle cx="197.15" cy="52.33" r=".45" fill="#2a2e31"/><circle cx="199.07" cy="52.33" r=".45" fill="#2a2e31"/><circle cx="201.00" cy="52.33" r=".45" fill="#2a2e31"/><circle cx="239.33" cy="49.00" r="6.33" fill="url(#lens)" stroke="#2c3236" stroke-width=".8"/><g transform="translate(54.00 592.67) scale(1.1667)" fill="none" stroke="#fff" stroke-opacity=".2" stroke-width="2.2" stroke-linecap="round" stroke-linejoin="round"><path d="M8.5 5.5 5 9l3.5 3.5M5.5 9H15a4.5 4.5 0 0 1 0 9H8"/></g><g transform="translate(122.00 592.67) scale(1.1667)" fill="none" stroke="#fff" stroke-opacity=".2" stroke-width="2.2" stroke-linecap="round" stroke-linejoin="round"><path d="M9 6h11M4 10h16M4 14h16M4 18h16"/></g><g transform="translate(185.67 592.67) scale(1.1667)" fill="none" stroke="#fff" stroke-opacity=".2" stroke-width="2.2" stroke-linecap="round" stroke-linejoin="round"><circle cx="10" cy="10" r="5.5"/><path d="m14 14 5.5 5.5"/></g><g transform="translate(249.67 592.67) scale(1.1667)" fill="none" stroke="#fff" stroke-opacity=".2" stroke-width="2.2" stroke-linecap="round" stroke-linejoin="round"><path d="M2.5 12.5 12 4.5l9.5 8M6 10.5V19h12v-8.5"/></g>
</svg>